<svg width="33" height="32" viewBox="0 0 33 32" fill="none" xmlns="http://www.w3.org/2000/svg">
<rect x="0.642578" width="32" height="32" rx="16" fill="#D4CEFA"/>
<path fill-rule="evenodd" clip-rule="evenodd" d="M11.8612 19.9471L7 19.5749V17.6882L11.1419 18.0053L11.5907 12.1436L16.4025 12.8751L17.53 16.5085L17.2618 20.0114C17.2359 20.3491 16.8724 20.3542 16.8724 20.3542L16.4792 20.3147C16.4792 20.3147 16.4513 18.0296 14.3176 17.8663C12.0151 17.69 11.8612 19.9471 11.8612 19.9471ZM13.2434 15.8171L16.8547 16.4568L16.0467 13.7016L13.4368 13.2896L13.2434 15.8171Z" fill="black"/>
<path d="M10.3337 17.4722L7 17.217V10.0002L10.8829 10.2975L10.3337 17.4722Z" fill="black"/>
<path fill-rule="evenodd" clip-rule="evenodd" d="M27.0071 13.5083L22.464 14.1779L18.6484 17.6137L19.063 20.4261L20.4358 21.1816C20.2353 20.9308 20.0967 20.6242 20.0462 20.2812C19.8979 19.2752 20.5997 18.3307 21.6058 18.1824C22.6118 18.0341 23.5563 18.736 23.7046 19.742C23.7551 20.085 23.7108 20.4186 23.5912 20.7166L27.0071 20.2131V15.9145L25.6235 16.1185L25.3471 14.2435L27.0071 13.9989V13.5083ZM24.8899 14.3109L25.1662 16.1859L21.4163 16.7386L23.0149 14.5873L24.8899 14.3109Z" fill="black"/>
<path fill-rule="evenodd" clip-rule="evenodd" d="M20.5032 20.2139C20.392 19.4593 20.915 18.7281 21.6924 18.6135C22.4698 18.499 23.1815 19.0482 23.2927 19.8027C23.4039 20.5573 22.8809 21.2885 22.1035 21.4031C21.349 21.5143 20.6144 20.9684 20.5032 20.2139ZM22.561 19.9106C22.5071 19.5447 22.1661 19.2913 21.8002 19.3452C21.4344 19.3991 21.1809 19.7402 21.2348 20.106C21.2888 20.4719 21.6298 20.7253 21.9957 20.6714C22.3615 20.6175 22.6149 20.2764 22.561 19.9106Z" fill="black"/>
<path fill-rule="evenodd" clip-rule="evenodd" d="M14.0031 22.0022C12.9775 21.9237 12.2097 21.0287 12.2882 20.0031C12.3668 18.9775 13.2618 18.2097 14.2874 18.2882C15.313 18.3668 16.0807 19.2618 16.0022 20.2874C15.9237 21.313 15.0287 22.0807 14.0031 22.0022ZM15.0279 20.2128C14.9906 20.7007 14.5648 21.0659 14.0769 21.0286C13.589 20.9912 13.2237 20.5654 13.2611 20.0775C13.2984 19.5896 13.7242 19.2243 14.2121 19.2617C14.7 19.299 15.0653 19.7248 15.0279 20.2128Z" fill="black"/>
<path d="M20.6975 11.309L19.3421 13.0932C19.2117 13.2647 18.9397 13.2001 18.9005 12.9883L18.6625 11.7033L18.5735 13.5396C18.5625 13.7655 18.2798 13.8602 18.135 13.6864L17.3993 12.8035L17.9869 14.4826C18.013 14.5571 17.9737 14.6386 17.8993 14.6647C17.8248 14.6907 17.7432 14.6515 17.7172 14.577L17.0607 12.7014C16.9694 12.4406 17.3087 12.2483 17.4856 12.4606L18.2927 13.4292L18.3928 11.3659C18.407 11.0716 18.8309 11.043 18.8846 11.3327L19.166 12.8524L20.5966 10.9693C20.7639 10.7491 21.1117 10.9265 21.0317 11.1913L20.5053 12.9324L21.726 12.3661C21.9691 12.2533 22.1936 12.5527 22.0172 12.7545L20.3839 14.6238C20.3319 14.6832 20.2417 14.6893 20.1822 14.6374C20.1228 14.5854 20.1167 14.4952 20.1687 14.4358L21.6852 12.7001L20.5493 13.227C20.355 13.3172 20.1454 13.1352 20.2074 12.9301L20.6975 11.309Z" fill="black"/>
</svg>
