<svg width="33" height="32" viewBox="0 0 33 32" fill="none" xmlns="http://www.w3.org/2000/svg">
<rect x="0.642578" width="32" height="32" rx="16" fill="#F5A6A6"/>
<path d="M22.4481 16.5159C22.4481 20.3597 19.7244 22.9417 16.3424 23C17.5508 22.9633 18.5126 22.3433 18.5126 20.5597C18.5126 18.7195 16.224 16.3343 16.224 16.3343C16.224 16.3343 13.9354 18.7195 13.9354 20.5597C13.9354 22.3433 14.8972 22.9633 16.1057 23C12.7236 22.9417 10 20.3597 10 16.5159C10 15.1475 10.7701 13.6873 11.7702 12.3705C11.4611 13.7703 12.5492 15.1122 13.5704 15.1391C13.7737 12.8189 13.7737 11.3337 16.224 8C18.0426 11.7504 22.2997 12.1305 22.4481 16.5159Z" fill="black"/>
</svg>
