<svg width="32" height="32" viewBox="0 0 32 32" fill="none" xmlns="http://www.w3.org/2000/svg">
<rect width="32" height="32" rx="16" fill="#DBE790"/>
<path d="M21.4216 12.3439H19.3726V10.6392C19.3726 9.73762 18.635 9 17.7334 9H14.5535C13.6519 9 12.9143 9.73762 12.9143 10.6392V12.3275H10.8653C9.48844 12.3275 8.35742 13.4585 8.35742 14.8354V21.3921C8.35742 22.769 9.48844 23.9 10.8653 23.9H21.4216C22.7985 23.9 23.9295 22.769 23.9295 21.3921V14.8354C23.9295 13.4585 22.7985 12.3439 21.4216 12.3439ZM14.4551 10.6392C14.4551 10.59 14.5043 10.5408 14.5535 10.5408H17.717C17.7662 10.5408 17.8154 10.59 17.8154 10.6392V12.3275H14.4551V10.6392ZM19.0776 19.1464H17.1761V21.0642H15.1108V19.1464H13.2093V17.0975H15.1272V15.1796H17.1761V17.0975H19.0939V19.1464H19.0776Z" fill="black"/>
</svg>
