<svg width="33" height="33" viewBox="0 0 33 33" fill="none" xmlns="http://www.w3.org/2000/svg">
<rect x="0.352051" y="0.591797" width="32" height="32" rx="16" fill="#F5E8A6"/>
<path d="M14.3472 12.3697C14.4363 12.7261 14.4898 13.136 14.5254 13.6172C14.5433 13.8845 14.5076 14.2409 14.4542 14.633C14.3294 15.6666 14.169 16.9497 15.0779 17.3418C15.1848 17.3952 15.2561 17.5022 15.2383 17.6269L14.9532 19.9258C15.5056 20.0327 15.862 20.2466 16.1115 20.3892C16.3076 20.5139 16.3076 20.5139 16.4679 20.5139C16.6105 20.5139 16.6283 20.5139 16.8244 20.3892C17.056 20.2466 17.4125 20.0327 17.9471 19.9258L18.1788 17.9833C18.1966 17.8764 18.25 17.8051 18.357 17.7695C19.7114 17.2527 20.4955 15.7913 21.0301 14.8112L21.5648 13.8132C21.6182 13.7063 21.6361 13.5637 21.5826 13.4568C21.5291 13.3498 21.44 13.2607 21.3153 13.2251C21.1549 13.1716 20.9767 13.2429 20.8697 13.3677L20.2282 14.2053C20.05 14.4369 19.8361 14.633 19.5866 14.7934C19.5332 14.829 19.4797 14.8468 19.4084 14.829C18.1609 14.7042 17.7511 15.9339 17.7332 15.9874C17.6976 16.1299 17.5372 16.219 17.3946 16.1656C17.2521 16.1299 17.163 15.9695 17.2164 15.827C17.3768 15.2745 18.0184 14.2944 19.2124 14.2765L20.549 10.4094C20.6203 10.2133 20.5133 9.98166 20.2995 9.91038C20.1034 9.83909 19.8896 9.94602 19.8005 10.1421L18.7669 12.8865C18.7134 13.0112 18.5886 13.0825 18.4461 13.0469C18.3213 13.0112 18.2322 12.8865 18.25 12.7439L18.6421 9.44703C18.6778 9.23318 18.5174 9.03715 18.3035 9.0015C18.0897 8.98368 17.8936 9.12625 17.8758 9.32228L17.3412 12.7083C17.3234 12.8509 17.1986 12.94 17.0739 12.94C16.9313 12.94 16.8244 12.833 16.8065 12.6905L16.5749 9.82127C16.5749 9.71435 16.5214 9.62524 16.4323 9.55396C16.361 9.48267 16.2541 9.44703 16.1293 9.46485C15.9155 9.48267 15.7551 9.66088 15.7729 9.87474L15.862 12.7796C15.862 12.9221 15.7729 13.0291 15.6304 13.0469C15.4878 13.0647 15.363 12.9756 15.3274 12.8509L14.7571 10.6945C14.7037 10.4985 14.4898 10.3737 14.2759 10.4272C14.169 10.445 14.0799 10.5163 14.0265 10.6054C13.973 10.6945 13.9552 10.8014 13.973 10.9084L14.3472 12.3697Z" fill="black"/>
<path d="M8.60864 22.2965C8.92942 22.2252 9.14327 22.0827 9.32148 21.9757C9.55315 21.8332 9.73136 21.7263 10.1234 21.7263C10.5155 21.7263 10.6937 21.8332 10.9254 21.9757C11.2105 22.154 11.5669 22.3678 12.2263 22.3678C12.8857 22.3678 13.2421 22.154 13.5273 21.9757C13.7767 21.8332 13.9371 21.7263 14.3292 21.7263C14.7213 21.7263 14.8995 21.8332 15.1311 21.9757C15.4163 22.154 15.7727 22.3678 16.4321 22.3678C17.0915 22.3678 17.4479 22.154 17.733 21.9757C17.9825 21.8332 18.1429 21.7263 18.535 21.7263C18.927 21.7263 19.1052 21.8332 19.3369 21.9757C19.6221 22.154 19.9785 22.3678 20.6379 22.3678C21.2972 22.3678 21.6537 22.154 21.9388 21.9757C22.1705 21.8332 22.3487 21.7263 22.7407 21.7263C23.1328 21.7263 23.311 21.8332 23.5427 21.9757C23.7209 22.0827 23.9348 22.2074 24.2377 22.2965C24.5407 22.3678 24.8436 22.154 24.8436 21.8332C24.8436 21.6193 24.6832 21.4233 24.4694 21.3698C24.309 21.3342 24.1843 21.2451 24.0239 21.156C23.7387 20.9778 23.3823 20.7639 22.7229 20.7639C22.0635 20.7639 21.7071 20.9778 21.422 21.156C21.1903 21.2985 21.0121 21.4055 20.62 21.4055C20.228 21.4055 20.0498 21.2985 19.8181 21.156C19.533 20.9778 19.1765 20.7639 18.5172 20.7639C17.8578 20.7639 17.5014 20.9778 17.2162 21.156C16.9845 21.2985 16.8063 21.4055 16.4143 21.4055C16.0222 21.4055 15.844 21.2985 15.6123 21.156C15.3272 20.9778 14.9708 20.7639 14.3114 20.7639C13.652 20.7639 13.2956 20.9778 13.0104 21.156C12.7609 21.2985 12.6006 21.4055 12.2085 21.4055C11.8164 21.4055 11.6382 21.2985 11.4065 21.156C11.1214 20.9778 10.765 20.7639 10.1056 20.7639C9.44623 20.7639 9.0898 20.9778 8.80467 21.156C8.6621 21.2451 8.53735 21.3164 8.37696 21.352C8.19875 21.4055 8.03836 21.548 8.00272 21.7263C7.96708 22.0827 8.28786 22.3678 8.60864 22.2965Z" fill="black"/>
<path d="M24.5763 23.5075C24.4159 23.4719 24.2912 23.3828 24.1308 23.2937C23.8456 23.1155 23.4892 22.9016 22.8298 22.9016C22.1705 22.9016 21.814 23.1155 21.5289 23.2937C21.2794 23.4362 21.119 23.5432 20.7091 23.5432C20.3171 23.5432 20.1389 23.4362 19.9072 23.2937C19.622 23.1155 19.2656 22.9016 18.6062 22.9016C17.9469 22.9016 17.5904 23.1155 17.3053 23.2937C17.0558 23.4362 16.8776 23.5432 16.4855 23.5432C16.0935 23.5432 15.9153 23.4362 15.6836 23.2937C15.3984 23.1155 15.042 22.9016 14.3826 22.9016C13.7233 22.9016 13.3668 23.1155 13.0817 23.2937C12.8322 23.4362 12.6718 23.5432 12.2798 23.5432C11.8877 23.5432 11.7095 23.4362 11.4778 23.2937C11.1927 23.1155 10.8363 22.9016 10.1769 22.9016C9.51749 22.9016 9.16107 23.1155 8.87593 23.2937C8.73337 23.3828 8.60862 23.4541 8.44823 23.5075C8.27002 23.561 8.10963 23.7036 8.07399 23.8818C8.0027 24.2382 8.32348 24.5233 8.66208 24.4342C8.98286 24.3629 9.19671 24.2204 9.37492 24.1134C9.6066 23.9709 9.78481 23.8639 10.1769 23.8639C10.5689 23.8639 10.7471 23.9709 10.9788 24.1134C11.264 24.2917 11.6204 24.5055 12.2798 24.5055C12.9391 24.5055 13.2956 24.2917 13.5807 24.1134C13.8302 23.9709 13.9906 23.8639 14.3826 23.8639C14.7747 23.8639 14.9529 23.9709 15.1846 24.1134C15.4697 24.2917 15.8262 24.5055 16.4855 24.5055C17.1449 24.5055 17.5013 24.2917 17.7865 24.1134C18.036 23.9709 18.1964 23.8639 18.5884 23.8639C18.9805 23.8639 19.1587 23.9709 19.3904 24.1134C19.6755 24.2917 20.0319 24.5055 20.6913 24.5055C21.3507 24.5055 21.7071 24.2917 21.9922 24.1134C22.2239 23.9709 22.4021 23.8639 22.7942 23.8639C23.1863 23.8639 23.3645 23.9709 23.5961 24.1134C23.7743 24.2204 23.9882 24.3451 24.2912 24.4342C24.5941 24.5055 24.8971 24.2917 24.8971 23.9709C24.9505 23.7392 24.7902 23.561 24.5763 23.5075Z" fill="black"/>
</svg>
