<svg width="33" height="32" viewBox="0 0 33 32" fill="none" xmlns="http://www.w3.org/2000/svg">
<rect x="0.642578" width="32" height="32" rx="16" fill="#F5A6DF"/>
<path d="M16.338 16.0625C16.7637 15.56 17.4068 15.125 18.0893 14.6769C19.1224 14 20.2943 13.2088 20.8512 12.0256C21.7887 10.0344 23.2887 9.54875 23.3543 9.52813H23.3674C23.2908 8.96322 23.0525 8.43252 22.6812 8L14.0093 16.6719L15.2187 17.8831C15.3049 17.5981 15.5618 16.9813 16.338 16.0625Z" fill="black"/>
<path d="M21.0201 12.1046C20.4426 13.3364 19.2426 14.1333 18.1926 14.8346C17.5213 15.2827 16.8894 15.7027 16.4807 16.1846C15.5994 17.2271 15.4101 17.8721 15.3726 18.0371L16.3101 18.9746L20.8663 14.4389C20.8663 14.4389 23.5551 12.0933 23.3882 9.71582C23.2044 9.78145 21.8676 10.3177 21.0201 12.1046Z" fill="black"/>
<path d="M15.4175 19.8876L13.1056 17.5757L10.4806 20.2007C10.3282 20.3526 10.2074 20.533 10.1249 20.7317C10.0424 20.9304 10 21.1434 10 21.3585C10 21.5736 10.0424 21.7866 10.1249 21.9853C10.2074 22.184 10.3282 22.3644 10.4806 22.5163C10.6326 22.6687 10.8132 22.7896 11.0121 22.8721C11.2109 22.9546 11.4241 22.997 11.6393 22.997C11.8546 22.997 12.0677 22.9546 12.2666 22.8721C12.4654 22.7896 12.646 22.6687 12.7981 22.5163L15.4175 19.8876Z" fill="black"/>
<path d="M22.7206 18.875C24.8994 18.875 22.7206 15.1719 22.7206 15.1719C22.7206 15.1719 20.54 18.875 22.7206 18.875Z" fill="black"/>
<path d="M19.6383 19.2969C19.6383 19.2969 17.4595 23 19.6383 23C21.817 23 19.6383 19.2969 19.6383 19.2969Z" fill="black"/>
<path d="M13.1714 16.1001L12.5337 16.7378L16.254 20.4581L16.8917 19.8203L13.1714 16.1001Z" fill="black"/>
</svg>
